<svg version="1.1" xmlns="http://www.w3.org/2000/svg" style="display: block;" viewBox="0 0 2048 2048">
<defs>
	<linearGradient id="Gradient1" gradientUnits="userSpaceOnUse" x1="1895.58" y1="1932.99" x2="151.213" y2="113.878">
		<stop class="stop0" offset="0" stop-opacity="1" stop-color="rgb(255,69,42)"/>
		<stop class="stop1" offset="1" stop-opacity="1" stop-color="rgb(254,60,100)"/>
	</linearGradient>
</defs>
<rect x="0" y="0" width="2048" height="2048" rx="400" fill="url(#Gradient1)"/>

<path transform="translate(0,0)" fill="rgb(254,254,254)" d="M 993.662 836.453 C 993.726 836.449 993.79 836.446 993.853 836.442 C 1132.09 832.107 1269.98 852.528 1401.03 896.74 C 1415.17 901.599 1443.81 908.465 1454.17 918.892 C 1461.55 926.316 1463.28 938.068 1462.97 948.094 C 1462.35 968.323 1442 1043.44 1426.34 1057.09 C 1425.37 1057.94 1423.49 1059.07 1422.19 1059.22 C 1418.36 1059.65 1378.14 1041.18 1371.4 1038.55 C 1276.03 1001.38 1160.03 980.618 1057.94 977.912 C 1030.31 976.284 1001.52 977.489 973.872 979.055 C 883.966 983.423 795.046 999.78 709.471 1027.69 C 693.502 1032.84 677.772 1038.69 662.326 1045.24 C 651.208 1049.97 637.613 1056.7 626.271 1059.93 C 625.766 1059.47 625.254 1059.02 624.754 1058.56 C 606.212 1041.44 587.99 972.766 587.266 947.444 C 586.998 938.042 587.738 926.909 594.712 919.865 C 605.337 909.133 628.398 903.966 642.448 898.983 C 755.505 859.809 874.032 838.707 993.662 836.453 z"/>
<path transform="translate(0,0)" fill="rgb(254,254,254)" d="M 489.683 647.278 C 544.45 643.796 573.434 696.897 597.895 738.459 C 608.919 757.19 653.078 844.059 646.258 859.672 C 642.997 861.874 643.175 861.752 639.204 861.967 C 634.993 860.653 633.477 857.645 631.469 854.013 C 624.56 841.518 619.486 827.501 613.477 814.512 C 597.441 779.845 577.301 742.97 550.54 715.402 C 542.923 707.554 532.594 698.936 521.075 699.129 C 514.639 699.237 509.093 702.286 504.671 706.834 C 485.671 726.378 485.416 779.651 486.172 806.596 C 487.424 851.174 494.35 896.354 503.865 939.863 C 524.059 1032.21 580.5 1206.29 650.284 1271.43 C 658.489 1279.09 670.16 1288.35 681.981 1287.57 C 688.055 1287.17 693.208 1283.9 697.11 1279.37 C 718.158 1254.92 714.463 1194.17 712.264 1163.24 C 710.26 1130.59 704.013 1105.53 700.797 1074.89 C 720.5 1053.16 722.234 1087.66 724.544 1102.65 C 735.032 1170.72 752.976 1262.77 718.32 1325.7 C 706.926 1346.39 678.462 1352.15 658.337 1357.62 C 583.213 1390.72 548.324 1339.03 512.029 1274.54 C 449.19 1162.89 406.861 1028.41 384.768 901.256 C 376.546 837.682 359.43 747.322 392.659 689.139 C 405.697 666.309 465.729 651.182 489.683 647.278 z"/>
<path transform="translate(0,0)" fill="rgb(254,254,254)" d="M 1543.29 647.225 C 1565.86 645.094 1627 662.407 1644.87 676.136 C 1665.02 691.615 1671.27 716.85 1674.22 740.898 C 1692.27 887.77 1612.31 1142.29 1540.95 1269.71 C 1530.84 1287.76 1520.15 1306.67 1507.37 1322.97 C 1491.99 1342.6 1471.36 1365.1 1445.1 1368.08 C 1438.24 1368.86 1431.01 1368.27 1424.23 1367.03 C 1415.18 1365.36 1406.29 1361.87 1397.49 1359.23 C 1379.23 1353.75 1357.27 1349.85 1342.22 1337.4 C 1321.34 1320.13 1315.82 1287.46 1313.49 1262.08 C 1308.44 1207.17 1316.32 1150.9 1326.6 1097.06 C 1327.99 1089.77 1329.61 1072.79 1334.75 1067.54 C 1335.48 1066.8 1335.64 1066.8 1336.72 1066.82 C 1339.94 1066.88 1344.54 1068.84 1346.66 1071.34 C 1348.24 1073.2 1348.82 1075.67 1348.9 1078.06 C 1349.14 1085.03 1346.97 1093.59 1345.8 1100.53 C 1343.47 1114.38 1340.98 1128.22 1339.88 1142.24 C 1335.26 1177.84 1331.61 1234.45 1345.87 1267.17 C 1349.21 1274.84 1354.59 1283.23 1362.85 1286.18 C 1369.42 1288.54 1376.53 1286.62 1382.54 1283.62 C 1439.79 1255.04 1496.5 1108.04 1515.66 1049.96 C 1544.02 963.97 1566.79 869.376 1563.41 778.193 C 1562.67 758.244 1560.88 734.244 1551.39 716.265 C 1546.35 706.726 1540.32 701.62 1530.05 698.579 C 1478.58 708.343 1438.08 813.901 1417.24 857.251 C 1412.87 866.344 1401.18 860.058 1401.47 854.157 C 1401.98 843.634 1409.76 829.169 1413.56 819.332 C 1434.27 769.742 1457.92 718.924 1493.72 678.311 C 1507.8 662.337 1522.65 651.639 1543.29 647.225 z"/>
<path transform="translate(0,0)" fill="rgb(254,254,254)" d="M 348.275 804.265 C 350.323 806.239 348.131 823.382 348.099 827.824 C 347.841 863.721 352.359 901.723 359.087 936.99 C 379.127 1042.04 412.659 1147.2 462.694 1241.9 C 470.466 1256.61 483.41 1275.61 492.576 1289.86 C 470.06 1300.14 434.771 1312.45 410.55 1304.76 C 409.074 1304.09 407.657 1303.33 406.245 1302.53 C 351.516 1271.8 301.881 1119.31 285.356 1059.45 C 272.062 1011.3 244.913 885.405 271.329 841.107 C 285.798 816.844 322.954 810.343 348.275 804.265 z"/>
<path transform="translate(0,0)" fill="rgb(254,254,254)" d="M 1700.06 803.425 C 1708.77 805.277 1717.51 808.128 1726.1 810.564 C 1746.73 816.412 1768.54 823.014 1779.56 843.178 C 1804.91 889.589 1775.63 1020.35 1761.72 1068.97 C 1743.97 1130.95 1697.5 1272.7 1641.2 1303.96 C 1614.48 1314.04 1583.43 1299.39 1557.65 1289.84 C 1635.03 1172.38 1712.24 945.269 1700.06 803.425 z"/>
<path transform="translate(0,0)" fill="rgb(254,254,254)" d="M 898.248 1556.77 C 908.855 1556.48 920.993 1556.77 931.714 1556.79 C 942.216 1568.03 952.58 1581.37 962.491 1593.34 C 980.095 1614.38 997.5 1635.59 1014.7 1656.96 C 1013.05 1626.91 1014.02 1587.55 1014.01 1556.76 L 1053.66 1556.71 C 1052.33 1608.67 1052.63 1671.25 1053.48 1723.35 C 1042.56 1723.13 1031.64 1723.16 1020.73 1723.44 C 993.243 1690.23 965.761 1655.83 937.728 1623.22 L 937.643 1723.18 L 898.204 1723.56 L 898.248 1556.77 z"/>
<path transform="translate(0,0)" fill="rgb(254,254,254)" d="M 1092.56 1556.63 L 1221.66 1556.59 L 1221.47 1587.94 L 1132.11 1588.06 L 1132.1 1622.61 C 1158.46 1622.45 1184.81 1622.52 1211.16 1622.82 L 1211.02 1653.59 C 1186.49 1653.05 1160.62 1653.59 1135.75 1653.26 C 1135.23 1653.27 1133.61 1653.72 1133.03 1653.87 C 1130.9 1658.56 1132.05 1684.66 1132.18 1691.24 C 1163.33 1691.42 1194.48 1691.41 1225.63 1691.19 C 1225.55 1701.89 1225.53 1712.58 1225.58 1723.28 C 1181.22 1723.03 1136.85 1723.14 1092.49 1723.6 C 1092.9 1667.95 1092.92 1612.29 1092.56 1556.63 z"/>
<path transform="translate(0,0)" fill="rgb(254,254,254)" d="M 1304.61 1554.36 C 1327.25 1550.75 1357.76 1557.26 1377.91 1568.67 C 1373.73 1578.74 1369.62 1589.14 1364.83 1598.91 C 1349.73 1590.93 1336.12 1585.56 1318.75 1585.11 C 1309.31 1585.15 1299.02 1586.09 1292.06 1592.95 C 1273.02 1611.65 1306.66 1619.89 1320.01 1622.81 C 1346.36 1628.79 1382.92 1636.03 1384.18 1669.72 C 1385.77 1712.44 1350.76 1725.55 1314.48 1726.12 C 1290.3 1725.8 1263.2 1721.37 1244.15 1705.32 C 1248.38 1695.63 1253.57 1685.11 1258.1 1675.47 C 1278.15 1689.31 1315.8 1703.68 1340.26 1686.57 C 1342.29 1685.14 1345.37 1679.17 1344.72 1676.58 C 1339.6 1656.38 1309.89 1657.87 1293.8 1652.19 C 1266.93 1645.15 1244.62 1632.02 1248.37 1600.13 C 1251.94 1569.86 1277.78 1558.1 1304.61 1554.36 z"/>
<path transform="translate(0,0)" fill="rgb(254,254,254)" d="M 1461.56 1554.34 C 1486.66 1552.03 1512.06 1556.16 1534.41 1567.98 C 1530.28 1578.34 1526.08 1588.67 1521.8 1598.97 C 1505 1589.74 1465.6 1576.11 1448.59 1592.86 C 1423.2 1617.86 1486.96 1624.18 1499.74 1628.73 C 1509.85 1632.33 1521.75 1636.38 1529.67 1644.44 C 1546.6 1659.78 1543.19 1692.18 1527.81 1707.36 C 1512.98 1722.01 1491.69 1725.79 1471.59 1726.16 C 1444.73 1726.11 1422.71 1721.26 1400.49 1706.06 C 1404.43 1696.63 1410.17 1685.12 1414.59 1675.69 C 1430.34 1687.29 1449.32 1693.69 1468.88 1694.01 C 1477.87 1694.08 1490.03 1693.65 1496.62 1686.81 C 1514 1669.74 1484.45 1659.64 1469.96 1657.16 C 1427.37 1649.9 1384.11 1628.29 1413.37 1577.97 C 1422.11 1562.95 1443.99 1556.85 1461.56 1554.34 z"/>
<path transform="translate(0,0)" fill="rgb(254,254,254)" d="M 511.139 1556.61 C 554.079 1556.82 597.02 1556.8 639.96 1556.54 L 639.78 1588.02 L 551.576 1588.02 C 551.272 1601.74 551.47 1616.14 551.454 1629.91 C 561.333 1629.77 625.285 1628.77 629.206 1631.18 L 629.473 1633.25 L 629.205 1661.91 L 551.492 1661.79 L 551.43 1723.3 C 538.109 1723.14 524.786 1723.27 511.471 1723.67 C 511.817 1667.98 511.707 1612.3 511.139 1556.61 z"/>
<path transform="translate(0,0)" fill="rgb(254,254,254)" d="M 728.242 1556.45 L 875.37 1556.71 L 875.666 1588.2 C 857.816 1588.03 839.698 1588.21 821.824 1588.23 L 821.897 1670.5 L 821.896 1723.2 L 781.951 1723.67 L 781.971 1588.23 C 764.098 1588.11 746.224 1588.2 728.353 1588.51 L 728.242 1556.45 z"/>
<path transform="translate(0,0)" fill="rgb(254,254,254)" d="M 239.513 1001.89 C 241.781 1004.19 251.956 1052.09 253.435 1058.91 C 263.113 1103.55 280.159 1143.09 295.103 1185.86 C 281.975 1186.41 275.961 1186.21 263.549 1182.5 C 217.158 1164.34 192.554 1090.15 204.992 1044.33 C 210.294 1024.79 221.958 1011.55 239.513 1001.89 z"/>
<path transform="translate(0,0)" fill="rgb(254,254,254)" d="M 1808.43 1001.57 C 1852.55 1023.56 1852.43 1071.76 1840.26 1113.84 C 1831.69 1143.46 1816.87 1166.42 1789.19 1181.3 C 1776.05 1186.44 1768.39 1186.41 1754.64 1185.72 C 1759.89 1168.6 1769.84 1146.41 1776.12 1128.29 C 1790.33 1087 1801.13 1044.62 1808.43 1001.57 z"/>
<path transform="translate(0,0)" fill="rgb(254,254,254)" d="M 666.053 1556.4 L 706.011 1556.8 C 705.831 1612.28 705.95 1667.76 706.365 1723.23 L 666.108 1723.5 L 666.053 1556.4 z"/>
</svg>